<?xml version="1.0" standalone="no"?>
<!DOCTYPE svg PUBLIC "-//W3C//DTD SVG 20010904//EN"
 "http://www.w3.org/TR/2001/REC-SVG-20010904/DTD/svg10.dtd">
<svg version="1.0" xmlns="http://www.w3.org/2000/svg"
 width="1800.000000pt" height="917.000000pt" viewBox="0 0 1800.000000 917.000000"
 preserveAspectRatio="xMidYMid meet">

<g transform="translate(0.000000,917.000000) scale(0.100000,-0.100000)"
fill="#000000" stroke="none">
<path d="M7800 7293 c-30 -8 -64 -23 -76 -34 -11 -10 -25 -19 -30 -19 -17 0
-69 -63 -95 -114 -20 -42 -24 -64 -24 -140 0 -109 16 -149 85 -218 73 -72 140
-101 225 -100 39 0 86 6 105 14 56 21 130 71 137 93 3 11 13 27 22 35 33 29
52 88 53 162 1 80 -14 149 -37 168 -8 7 -15 18 -15 24 0 15 -78 88 -110 104
-43 20 -124 42 -155 41 -16 0 -55 -7 -85 -16z m185 -34 c53 -15 146 -109 163
-165 6 -23 12 -75 12 -115 0 -93 -28 -158 -93 -215 -53 -47 -102 -64 -179 -64
-185 0 -299 148 -268 345 28 175 182 266 365 214z"/>
<path d="M8550 7293 c-30 -8 -64 -23 -76 -34 -11 -10 -25 -19 -30 -19 -17 0
-69 -63 -95 -114 -20 -43 -24 -64 -24 -145 1 -82 4 -102 24 -136 35 -60 105
-123 169 -153 64 -29 159 -34 222 -10 56 21 130 71 137 93 3 11 13 27 22 35
64 57 74 266 17 329 -9 10 -16 22 -16 27 0 14 -80 88 -110 102 -43 20 -124 42
-155 41 -16 0 -55 -7 -85 -16z m184 -33 c49 -15 128 -88 155 -145 31 -66 29
-192 -3 -260 -28 -60 -99 -127 -154 -143 -137 -41 -280 15 -338 134 -23 47
-27 68 -27 139 0 73 4 92 29 142 63 124 191 175 338 133z"/>
<path d="M9735 7296 c-22 -9 -55 -32 -75 -53 -33 -35 -35 -41 -35 -104 0 -53
4 -72 20 -89 26 -29 86 -55 168 -74 37 -9 89 -27 116 -41 46 -23 49 -27 56
-73 12 -89 -31 -148 -126 -173 -73 -19 -176 24 -194 81 -7 22 -45 28 -45 7 0
-19 70 -82 105 -95 61 -23 103 -24 159 -7 66 21 112 65 124 120 9 43 -1 109
-20 132 -16 19 -108 60 -154 69 -65 11 -139 43 -164 69 -19 20 -23 35 -23 83
1 51 5 63 32 93 30 32 35 34 111 37 67 4 84 1 113 -17 19 -12 40 -35 47 -51 7
-17 19 -30 26 -30 18 0 18 14 -1 50 -32 61 -159 96 -240 66z"/>
<path d="M9102 6989 c2 -235 6 -313 15 -316 9 -3 13 30 15 134 l3 138 115 6
c129 7 160 16 201 60 76 81 53 208 -47 259 -43 22 -64 25 -177 28 l-127 4 2
-313z m291 257 c38 -26 57 -66 57 -121 0 -105 -56 -145 -204 -145 l-95 0 -3
133 c-2 72 -1 138 1 146 6 22 207 11 244 -13z"/>
<path d="M15112 6945 c-20 -43 -15 -155 8 -192 11 -18 26 -33 35 -33 42 0 61
145 28 215 -21 43 -54 48 -71 10z"/>
<path d="M10470 6715 c-11 -13 -11 -19 3 -33 20 -19 41 -5 35 24 -4 24 -22 28
-38 9z"/>
<path d="M10690 6714 c-11 -12 -10 -18 4 -32 16 -16 18 -16 31 2 11 14 12 23
4 33 -15 17 -24 16 -39 -3z"/>
<path d="M10890 6714 c-11 -12 -10 -18 3 -32 16 -15 18 -15 34 0 13 14 14 20
3 32 -7 9 -16 16 -20 16 -4 0 -13 -7 -20 -16z"/>
<path d="M4277 6648 c-69 -94 -86 -248 -28 -248 41 0 98 104 108 197 9 85 -34
112 -80 51z"/>
<path d="M14759 6483 c-19 -22 -18 -157 0 -201 17 -40 49 -41 68 -2 18 35 16
132 -3 180 -17 43 -42 52 -65 23z"/>
<path d="M15498 6478 c-20 -36 -17 -168 5 -201 22 -34 50 -35 65 -2 17 36 15
149 -2 190 -18 41 -49 47 -68 13z"/>
<path d="M3814 6355 c-32 -32 -70 -118 -79 -176 -8 -54 10 -85 43 -75 44 14
112 144 112 214 0 64 -33 80 -76 37z"/>
<path d="M4416 6208 c-36 -48 -55 -99 -62 -166 -5 -47 -3 -61 10 -75 14 -13
22 -15 37 -6 54 29 112 184 92 246 -14 41 -45 42 -77 1z"/>
<path d="M15132 6019 c-74 -9 -148 -33 -177 -56 l-20 -16 20 7 c83 30 181 46
290 47 83 1 109 3 85 9 -62 14 -133 17 -198 9z"/>
<path d="M14841 5903 c7 -12 15 -20 18 -17 3 2 -3 12 -13 22 -17 16 -18 16 -5
-5z"/>
<path d="M3795 5836 c-73 -18 -113 -45 -136 -94 -27 -54 -19 -100 22 -141 30
-31 37 -33 167 -48 73 -9 74 -9 87 18 15 29 34 39 69 39 36 0 62 -39 76 -112
l13 -66 50 -4 c62 -4 102 18 123 67 20 49 18 84 -12 143 -47 95 -155 169 -286
196 -89 18 -105 19 -173 2z"/>
<path d="M8764 5551 c8 -12 354 -12 362 0 3 5 -73 9 -181 9 -105 0 -184 -4
-181 -9z"/>
<path d="M8653 5533 c15 -2 37 -2 50 0 12 2 0 4 -28 4 -27 0 -38 -2 -22 -4z"/>
<path d="M9178 5533 c12 -2 32 -2 45 0 12 2 2 4 -23 4 -25 0 -35 -2 -22 -4z"/>
<path d="M9275 5520 c-4 -6 7 -10 27 -9 27 0 30 2 13 9 -27 12 -33 12 -40 0z"/>
<path d="M8578 5513 c6 -2 18 -2 25 0 6 3 1 5 -13 5 -14 0 -19 -2 -12 -5z"/>
<path d="M8505 5500 c-19 -8 -19 -9 2 -9 12 -1 25 4 28 9 7 12 -2 12 -30 0z"/>
<path d="M9348 5498 c5 -5 16 -8 23 -6 8 3 3 7 -10 11 -17 4 -21 3 -13 -5z"/>
<path d="M5873 5480 c-11 -16 -10 -18 2 -14 8 4 15 12 15 20 0 19 -3 18 -17
-6z"/>
<path d="M12170 5480 c-9 -16 -8 -18 5 -14 8 4 15 12 15 20 0 20 -7 17 -20 -6z"/>
<path d="M9408 5478 c5 -5 16 -8 23 -6 8 3 3 7 -10 11 -17 4 -21 3 -13 -5z"/>
<path d="M8448 5473 c7 -3 16 -2 19 1 4 3 -2 6 -13 5 -11 0 -14 -3 -6 -6z"/>
<path d="M8400 5460 c-13 -8 -12 -10 3 -10 9 0 17 5 17 10 0 12 -1 12 -20 0z"/>
<path d="M9460 5460 c0 -6 7 -10 15 -10 8 0 15 2 15 4 0 2 -7 6 -15 10 -8 3
-15 1 -15 -4z"/>
<path d="M8350 5440 c0 -5 4 -10 9 -10 6 0 13 5 16 10 3 6 -1 10 -9 10 -9 0
-16 -4 -16 -10z"/>
<path d="M9505 5440 c-3 -5 1 -10 9 -10 9 0 16 5 16 10 0 6 -4 10 -9 10 -6 0
-13 -4 -16 -10z"/>
<path d="M5820 5410 c-12 -16 -17 -30 -11 -30 5 0 19 14 31 30 12 17 17 30 11
30 -5 0 -19 -13 -31 -30z"/>
<path d="M8246 5395 c-32 -19 -62 -35 -67 -35 -5 0 -9 -5 -9 -11 0 -6 3 -9 8
-7 71 32 152 75 152 81 0 15 -28 6 -84 -28z"/>
<path d="M9540 5425 c0 -2 21 -14 48 -25 76 -34 96 -44 110 -57 7 -7 21 -13
30 -13 22 0 -5 19 -93 65 -62 32 -95 43 -95 30z"/>
<path d="M12123 5418 c-20 -26 -26 -41 -15 -34 12 7 36 46 29 46 -3 0 -9 -6
-14 -12z"/>
<path d="M5770 5340 c-8 -16 -8 -18 4 -14 17 6 30 34 16 34 -5 0 -14 -9 -20
-20z"/>
<path d="M12066 5344 c-9 -8 -16 -22 -16 -30 0 -8 -4 -14 -9 -14 -5 0 -18 -15
-29 -32 -12 -18 -31 -46 -43 -62 l-23 -29 22 12 c12 6 22 15 22 19 0 4 18 32
41 62 58 78 76 116 35 74z"/>
<path d="M8140 5329 c0 -5 5 -7 10 -4 6 3 10 8 10 11 0 2 -4 4 -10 4 -5 0 -10
-5 -10 -11z"/>
<path d="M8098 5309 c-17 -9 -44 -49 -34 -49 2 0 18 14 36 30 32 30 31 39 -2
19z"/>
<path d="M9762 5304 c10 -10 20 -15 24 -12 3 4 -5 12 -18 18 -22 12 -22 12 -6
-6z"/>
<path d="M5726 5274 c-5 -14 -4 -15 9 -4 17 14 19 20 6 20 -5 0 -12 -7 -15
-16z"/>
<path d="M9830 5256 c0 -2 33 -32 73 -67 l72 -63 -55 58 c-49 51 -90 84 -90
72z"/>
<path d="M7948 5181 c-35 -32 -71 -74 -81 -93 -16 -28 -12 -26 27 17 25 28 67
69 93 93 26 23 42 42 36 42 -7 0 -41 -27 -75 -59z"/>
<path d="M5670 5205 c-20 -24 -6 -28 15 -5 10 11 13 20 8 20 -6 0 -16 -7 -23
-15z"/>
<path d="M5611 5115 c-17 -25 -27 -45 -23 -44 11 1 73 89 63 89 -5 0 -23 -20
-40 -45z"/>
<path d="M11920 5140 c-11 -11 -20 -25 -20 -32 0 -6 1 -9 3 -7 1 2 13 16 26
32 28 31 21 37 -9 7z"/>
<path d="M9980 5118 c0 -3 14 -21 31 -39 17 -19 26 -25 21 -14 -10 20 -52 63
-52 53z"/>
<path d="M11870 5075 c-7 -9 -11 -18 -8 -20 3 -3 11 1 18 10 7 9 11 18 8 20
-3 3 -11 -1 -18 -10z"/>
<path d="M8855 5050 c-19 -5 7 -8 75 -8 66 0 96 3 80 8 -31 10 -115 10 -155 0z"/>
<path d="M7817 5025 c-11 -16 -13 -23 -5 -20 15 6 42 45 31 45 -5 0 -16 -12
-26 -25z"/>
<path d="M8745 5030 c-7 -12 2 -12 30 0 19 8 19 9 -2 9 -12 1 -25 -3 -28 -9z"/>
<path d="M9100 5030 c19 -13 30 -13 30 0 0 6 -10 10 -22 10 -19 0 -20 -2 -8
-10z"/>
<path d="M5545 5022 c-5 -4 -16 -15 -24 -25 -12 -15 -12 -17 0 -12 8 3 20 14
27 25 13 22 13 24 -3 12z"/>
<path d="M8684 5015 c-10 -8 -14 -15 -8 -15 6 0 17 7 24 15 16 19 9 19 -16 0z"/>
<path d="M10070 4995 c13 -22 31 -51 40 -65 9 -14 20 -34 24 -44 3 -10 9 -16
12 -13 5 4 -4 23 -53 112 -7 12 -21 29 -30 36 -12 10 -10 3 7 -26z"/>
<path d="M11820 5005 c-13 -14 -19 -25 -13 -25 5 0 20 11 33 25 13 14 19 25
13 25 -5 0 -20 -11 -33 -25z"/>
<path d="M12470 5000 c-8 -5 -12 -11 -10 -14 3 -2 14 2 24 10 22 15 10 19 -14
4z"/>
<path d="M6154 4978 l-19 -23 23 19 c12 11 22 21 22 23 0 8 -8 2 -26 -19z"/>
<path d="M8625 4990 c-3 -5 -1 -10 4 -10 6 0 11 5 11 10 0 6 -2 10 -4 10 -3 0
-8 -4 -11 -10z"/>
<path d="M9235 4990 c3 -5 8 -10 11 -10 2 0 4 5 4 10 0 6 -5 10 -11 10 -5 0
-7 -4 -4 -10z"/>
<path d="M6228 4983 c-2 -5 -1 -341 2 -748 l5 -740 3 748 c1 411 0 747 -2 747
-3 0 -6 -3 -8 -7z"/>
<path d="M12525 4244 c0 -409 3 -744 8 -744 4 0 7 333 7 739 0 407 -3 742 -7
744 -5 3 -8 -330 -8 -739z"/>
<path d="M7776 4965 c-9 -26 -7 -32 5 -12 6 10 9 21 6 23 -2 3 -7 -2 -11 -11z"/>
<path d="M5455 4905 c-40 -64 -43 -71 -15 -48 11 10 20 23 20 30 0 6 6 18 13
25 29 31 39 48 29 48 -6 0 -27 -25 -47 -55z"/>
<path d="M8530 4950 c-9 -6 -10 -10 -3 -10 6 0 15 5 18 10 8 12 4 12 -15 0z"/>
<path d="M11780 4945 c-7 -9 -11 -18 -8 -20 3 -3 11 1 18 10 7 9 11 18 8 20
-3 3 -11 -1 -18 -10z"/>
<path d="M7745 4920 c-33 -53 -75 -147 -80 -178 l-5 -37 16 35 c43 90 64 138
64 148 0 6 5 12 12 14 6 2 9 10 6 18 -4 12 -6 12 -13 0z"/>
<path d="M6090 4899 c0 -5 5 -7 10 -4 6 3 10 8 10 11 0 2 -4 4 -10 4 -5 0 -10
-5 -10 -11z"/>
<path d="M8450 4899 c0 -5 5 -7 10 -4 6 3 10 8 10 11 0 2 -4 4 -10 4 -5 0 -10
-5 -10 -11z"/>
<path d="M9425 4890 c10 -11 20 -20 23 -20 3 0 -3 9 -13 20 -10 11 -20 20 -23
20 -3 0 3 -9 13 -20z"/>
<path d="M11729 4874 c-13 -15 -18 -25 -10 -22 13 4 49 48 39 48 -2 0 -15 -12
-29 -26z"/>
<path d="M5393 4818 c-24 -32 -24 -41 0 -19 15 14 27 26 27 28 0 8 -19 2 -27
-9z"/>
<path d="M11692 4823 c-7 -2 -17 -13 -22 -24 -8 -14 -7 -17 2 -14 11 4 45 47
36 44 -2 0 -9 -3 -16 -6z"/>
<path d="M5995 4770 c-3 -5 -1 -10 4 -10 6 0 11 5 11 10 0 6 -2 10 -4 10 -3 0
-8 -4 -11 -10z"/>
<path d="M5319 4718 c-18 -24 -37 -49 -42 -55 -6 -9 -6 -13 1 -13 9 0 42 43
76 98 17 28 -4 9 -35 -30z"/>
<path d="M10215 4720 c3 -25 10 -49 16 -54 5 -6 9 -20 9 -32 0 -13 5 -26 10
-29 6 -3 10 -22 10 -41 0 -19 5 -34 10 -34 6 0 10 13 10 29 0 17 -4 33 -10 36
-5 3 -10 17 -10 30 0 13 -4 27 -10 30 -5 3 -10 14 -10 24 0 10 -7 34 -15 52
l-16 34 6 -45z"/>
<path d="M11613 4718 c-47 -70 -48 -72 -30 -61 20 11 80 103 67 103 -5 0 -21
-19 -37 -42z"/>
<path d="M8270 4719 c0 -5 5 -7 10 -4 6 3 10 8 10 11 0 2 -4 4 -10 4 -5 0 -10
-5 -10 -11z"/>
<path d="M5945 4700 c-3 -5 -1 -10 4 -10 6 0 11 5 11 10 0 6 -2 10 -4 10 -3 0
-8 -4 -11 -10z"/>
<path d="M9610 4700 c0 -5 5 -10 11 -10 5 0 7 5 4 10 -3 6 -8 10 -11 10 -2 0
-4 -4 -4 -10z"/>
<path d="M7642 4680 c0 -14 2 -19 5 -12 2 6 2 18 0 25 -3 6 -5 1 -5 -13z"/>
<path d="M7622 4615 c0 -16 2 -22 5 -12 2 9 2 23 0 30 -3 6 -5 -1 -5 -18z"/>
<path d="M5235 4604 c-16 -25 -16 -25 3 -15 11 6 22 17 26 26 9 24 -10 17 -29
-11z"/>
<path d="M11529 4604 c-23 -25 -23 -26 -2 -15 23 12 38 29 31 37 -3 2 -15 -8
-29 -22z"/>
<path d="M5844 4558 l-19 -23 23 19 c12 11 22 21 22 23 0 8 -8 2 -26 -19z"/>
<path d="M7601 4545 c1 -40 1 -40 10 -10 5 18 5 33 -1 39 -7 7 -10 -4 -9 -29z"/>
<path d="M12145 4570 c-3 -5 -1 -10 4 -10 6 0 11 5 11 10 0 6 -2 10 -4 10 -3
0 -8 -4 -11 -10z"/>
<path d="M5198 4543 c-19 -23 -31 -43 -24 -43 2 0 14 14 26 30 23 33 22 40 -2
13z"/>
<path d="M11494 4552 c-16 -11 -77 -103 -71 -108 5 -5 39 37 72 89 18 28 18
32 -1 19z"/>
<path d="M8166 4535 c-3 -9 -6 -22 -5 -28 0 -7 5 -1 10 12 5 13 8 26 5 28 -2
2 -6 -3 -10 -12z"/>
<path d="M9711 4514 c0 -11 3 -14 6 -6 3 7 2 16 -1 19 -3 4 -6 -2 -5 -13z"/>
<path d="M10281 4478 c-1 -27 4 -48 9 -48 12 0 12 47 0 75 -6 15 -9 8 -9 -27z"/>
<path d="M5795 4500 c-3 -5 -2 -10 4 -10 5 0 13 5 16 10 3 6 2 10 -4 10 -5 0
-13 -4 -16 -10z"/>
<path d="M7583 4450 c0 -30 2 -43 4 -27 2 15 2 39 0 55 -2 15 -4 2 -4 -28z"/>
<path d="M5140 4470 c-9 -16 -8 -18 5 -14 8 4 15 12 15 20 0 20 -7 17 -20 -6z"/>
<path d="M8146 4474 c-4 -9 -4 -19 -1 -22 2 -3 7 3 11 12 4 9 4 19 1 22 -2 3
-7 -3 -11 -12z"/>
<path d="M9732 4470 c0 -14 2 -19 5 -12 2 6 2 18 0 25 -3 6 -5 1 -5 -13z"/>
<path d="M9741 4423 c0 -10 4 -27 9 -38 7 -17 9 -15 9 12 1 17 -3 35 -9 38 -5
3 -10 -2 -9 -12z"/>
<path d="M5097 4412 c-10 -10 -17 -24 -17 -32 0 -7 10 -1 21 14 24 31 21 45
-4 18z"/>
<path d="M11391 4414 c-7 -8 -11 -17 -9 -20 3 -2 13 5 23 16 10 11 14 20 9 20
-5 -1 -15 -8 -23 -16z"/>
<path d="M8126 4411 c-4 -7 -5 -15 -2 -18 9 -9 19 4 14 18 -4 11 -6 11 -12 0z"/>
<path d="M10298 4404 c-4 -5 -4 -41 0 -80 4 -38 9 -64 12 -59 8 15 -4 152 -12
139z"/>
<path d="M5715 4379 c-4 -6 -5 -12 -2 -15 2 -3 7 2 10 11 7 17 1 20 -8 4z"/>
<path d="M7560 3922 c0 -254 3 -462 8 -462 9 0 8 907 -1 917 -4 3 -7 -201 -7
-455z"/>
<path d="M5041 4331 c-23 -32 -28 -50 -8 -29 37 41 49 58 39 58 -6 0 -20 -13
-31 -29z"/>
<path d="M9760 4328 c0 -20 5 -40 10 -43 13 -8 13 45 0 65 -7 11 -10 6 -10
-22z"/>
<path d="M11345 4342 c-20 -14 -74 -90 -68 -95 6 -6 33 17 33 28 0 3 12 22 26
41 26 34 28 41 9 26z"/>
<path d="M8112 4303 c-1 -17 -5 -40 -8 -50 -5 -14 -4 -15 5 -7 7 7 11 28 8 50
-3 35 -4 35 -5 7z"/>
<path d="M4989 4263 c-13 -15 -12 -15 9 -4 23 12 28 21 13 21 -5 0 -15 -7 -22
-17z"/>
<path d="M11245 4210 c-10 -11 -14 -20 -8 -20 5 0 18 9 28 20 10 11 14 20 8
20 -5 0 -18 -9 -28 -20z"/>
<path d="M4936 4194 c-9 -24 -7 -27 9 -10 17 17 19 26 6 26 -5 0 -12 -7 -15
-16z"/>
<path d="M9780 4183 c-2 -253 1 -547 5 -551 3 -3 5 126 5 286 0 161 -2 292 -5
292 -3 0 -5 -12 -5 -27z"/>
<path d="M5554 4158 l-19 -23 23 19 c12 11 22 21 22 23 0 8 -8 2 -26 -19z"/>
<path d="M4875 4108 c-35 -53 -46 -81 -22 -56 27 27 78 108 68 108 -6 0 -26
-24 -46 -52z"/>
<path d="M11191 4134 c-30 -39 -26 -51 5 -14 15 17 24 33 21 36 -2 3 -14 -7
-26 -22z"/>
<path d="M11136 4064 c-9 -24 -7 -27 9 -10 17 17 19 26 6 26 -5 0 -12 -7 -15
-16z"/>
<path d="M4810 4015 c-7 -9 -10 -18 -7 -21 3 -3 10 4 17 15 13 25 8 27 -10 6z"/>
<path d="M11094 4003 c-10 -15 -32 -45 -48 -65 -16 -21 -27 -40 -24 -43 7 -7
68 69 68 84 0 6 4 11 9 11 10 0 24 30 17 37 -2 3 -13 -8 -22 -24z"/>
<path d="M5404 3958 l-19 -23 23 19 c12 11 22 21 22 23 0 8 -8 2 -26 -19z"/>
<path d="M4744 3928 c-23 -27 -54 -74 -54 -84 0 -6 35 30 58 61 9 12 23 45 18
45 -1 0 -11 -10 -22 -22z"/>
<path d="M11000 3869 c0 -5 5 -7 10 -4 6 3 10 8 10 11 0 2 -4 4 -10 4 -5 0
-10 -5 -10 -11z"/>
<path d="M4668 3813 c-19 -23 -31 -43 -24 -43 2 0 14 14 26 30 23 33 22 40 -2
13z"/>
<path d="M11595 3820 c-3 -5 -1 -10 4 -10 6 0 11 5 11 10 0 6 -2 10 -4 10 -3
0 -8 -4 -11 -10z"/>
<path d="M10942 3798 c-7 -7 -12 -15 -12 -19 0 -4 -13 -23 -30 -41 -16 -18
-30 -38 -30 -44 0 -6 -7 -17 -15 -24 -8 -7 -15 -17 -15 -22 0 -15 29 18 77 88
41 61 53 90 25 62z"/>
<path d="M5270 3769 c0 -5 5 -7 10 -4 6 3 10 8 10 11 0 2 -4 4 -10 4 -5 0 -10
-5 -10 -11z"/>
<path d="M11554 3758 l-19 -23 23 19 c21 18 27 26 19 26 -2 0 -12 -10 -23 -22z"/>
<path d="M989 3752 c-42 -8 -78 -197 -49 -253 9 -15 22 -19 61 -19 l51 0 -8
48 c-10 54 -11 142 -1 188 5 27 3 32 -16 36 -12 2 -29 2 -38 0z"/>
<path d="M4602 3730 c-12 -12 -22 -25 -22 -31 0 -10 13 1 39 34 18 23 10 22
-17 -3z"/>
<path d="M5215 3699 c-4 -6 -5 -12 -2 -15 2 -3 7 2 10 11 7 17 1 20 -8 4z"/>
<path d="M4550 3665 c-17 -21 -5 -31 15 -12 8 9 15 18 15 21 0 11 -18 6 -30
-9z"/>
<path d="M1510 3595 c-22 -65 -40 -169 -40 -224 0 -47 -9 -71 -65 -182 -36
-70 -65 -135 -65 -143 0 -15 -20 -63 -86 -202 -18 -39 -45 -102 -59 -140 -15
-38 -30 -78 -35 -89 -109 -269 -69 -397 146 -473 98 -35 94 -40 94 96 0 103 3
121 18 135 24 22 64 21 92 -1 l23 -19 -27 -111 c-14 -61 -26 -113 -26 -116 0
-10 119 -6 125 4 3 6 15 10 26 10 26 0 94 35 140 71 70 55 75 80 85 389 13
414 12 675 -5 735 -20 72 -50 135 -66 142 -8 3 -15 14 -15 24 0 18 -92 89
-117 89 -7 0 -16 6 -20 14 -4 8 -31 18 -59 21 l-52 7 -12 -37z m157 -492 c-3
-10 -5 -4 -5 12 0 17 2 24 5 18 2 -7 2 -21 0 -30z m0 -190 c-3 -10 -5 -4 -5
12 0 17 2 24 5 18 2 -7 2 -21 0 -30z"/>
<path d="M4518 3613 c-24 -29 -50 -74 -45 -79 2 -3 12 7 21 21 9 14 23 36 32
50 19 29 14 33 -8 8z"/>
<path d="M10809 3603 c-13 -16 -12 -17 4 -4 9 7 17 15 17 17 0 8 -8 3 -21 -13z"/>
<path d="M8106 3563 c9 -51 14 -54 14 -10 0 20 -5 39 -11 42 -7 5 -8 -5 -3
-32z"/>
<path d="M9768 3560 c-4 -14 -8 -38 -8 -55 1 -25 2 -27 11 -12 6 9 9 34 7 55
-3 33 -4 35 -10 12z"/>
<path d="M10297 3508 c-5 -68 -3 -88 7 -77 7 7 12 149 5 149 -3 0 -9 -33 -12
-72z"/>
<path d="M10753 3535 c-19 -21 -16 -27 7 -13 11 7 20 16 20 20 0 12 -14 9 -27
-7z"/>
<path d="M11381 3514 c0 -11 3 -14 6 -6 3 7 2 16 -1 19 -3 4 -6 -2 -5 -13z"/>
<path d="M7130 3215 c0 -177 4 -275 10 -275 6 0 10 98 10 275 0 177 -4 275
-10 275 -6 0 -10 -98 -10 -275z"/>
<path d="M13432 3213 c2 -279 6 -247 10 95 2 100 0 182 -4 182 -5 0 -7 -125
-6 -277z"/>
<path d="M4470 3396 c0 -44 4 -76 10 -76 6 0 10 30 10 69 0 39 -4 73 -10 76
-6 4 -10 -22 -10 -69z"/>
<path d="M9747 3436 c-5 -15 -6 -31 -3 -34 8 -8 18 25 14 45 -3 13 -6 10 -11
-11z"/>
<path d="M10760 3391 c0 -41 4 -71 10 -71 6 0 10 28 10 64 0 36 -4 68 -10 71
-6 4 -10 -20 -10 -64z"/>
<path d="M8126 3435 c4 -8 8 -15 10 -15 2 0 4 7 4 15 0 8 -4 15 -10 15 -5 0
-7 -7 -4 -15z"/>
<path d="M7583 3390 c0 -30 2 -43 4 -27 2 15 2 39 0 55 -2 15 -4 2 -4 -28z"/>
<path d="M10280 3366 c0 -25 -4 -48 -10 -51 -5 -3 -10 -17 -10 -30 0 -13 -4
-34 -9 -47 -26 -69 -42 -129 -38 -140 3 -7 6 -3 6 10 1 12 4 22 9 22 9 0 32
72 32 99 0 11 4 22 9 25 5 3 12 23 15 43 17 96 18 113 7 113 -6 0 -11 -19 -11
-44z"/>
<path d="M8140 3370 c0 -5 5 -10 11 -10 5 0 7 5 4 10 -3 6 -8 10 -11 10 -2 0
-4 -4 -4 -10z"/>
<path d="M9731 3364 c0 -11 3 -14 6 -6 3 7 2 16 -1 19 -3 4 -6 -2 -5 -13z"/>
<path d="M7602 3300 c0 -19 2 -27 5 -17 2 9 2 25 0 35 -3 9 -5 1 -5 -18z"/>
<path d="M4491 3198 c-1 -46 3 -78 9 -78 11 0 11 80 0 125 -6 22 -8 9 -9 -47z"/>
<path d="M7618 3225 c2 -14 6 -25 8 -25 2 0 4 11 4 25 0 14 -4 25 -9 25 -4 0
-6 -11 -3 -25z"/>
<path d="M10780 3187 c0 -37 4 -67 10 -67 9 0 3 118 -6 129 -2 2 -4 -26 -4
-62z"/>
<path d="M7640 3175 c0 -25 22 -85 32 -85 4 0 5 -7 2 -15 -4 -8 -1 -15 5 -15
15 0 14 7 -7 68 -21 58 -32 75 -32 47z"/>
<path d="M10190 3061 c0 -11 -3 -21 -7 -23 -8 -3 -42 -63 -72 -125 -8 -18 -19
-33 -23 -33 -4 0 -8 -5 -8 -11 0 -6 -11 -25 -25 -43 -26 -34 -32 -52 -15 -41
10 6 53 68 75 110 6 11 30 54 53 97 45 82 47 88 32 88 -5 0 -10 -9 -10 -19z"/>
<path d="M4509 3065 c-3 -5 -4 -20 -3 -32 1 -13 2 -42 3 -65 1 -25 5 -38 10
-32 5 5 6 38 2 74 -3 36 -9 61 -12 55z"/>
<path d="M9520 3025 c-24 -25 -42 -45 -39 -45 3 0 25 20 49 45 24 25 42 45 39
45 -3 0 -25 -20 -49 -45z"/>
<path d="M10801 2998 c-1 -33 3 -58 9 -58 12 0 12 67 0 95 -6 14 -9 4 -9 -37z"/>
<path d="M7690 3037 c0 -2 11 -25 25 -53 24 -46 25 -47 19 -14 -4 19 -10 37
-15 38 -5 2 -9 10 -9 18 0 8 -4 14 -10 14 -5 0 -10 -1 -10 -3z"/>
<path d="M7751 2930 c-1 -21 16 -46 26 -37 4 5 3 11 -3 15 -6 4 -14 14 -17 22
-5 13 -5 13 -6 0z"/>
<path d="M6226 2908 c-10 -40 -7 -578 4 -578 6 0 10 107 10 300 0 165 -2 300
-4 300 -2 0 -6 -10 -10 -22z"/>
<path d="M12520 2625 c0 -190 4 -295 10 -295 6 0 10 105 10 295 0 190 -4 295
-10 295 -6 0 -10 -105 -10 -295z"/>
<path d="M8625 2840 c3 -5 14 -10 23 -10 15 0 15 2 2 10 -20 13 -33 13 -25 0z"/>
<path d="M8687 2819 c7 -7 15 -10 18 -7 3 3 -2 9 -12 12 -14 6 -15 5 -6 -5z"/>
<path d="M9180 2820 c0 -5 4 -10 9 -10 6 0 13 5 16 10 3 6 -1 10 -9 10 -9 0
-16 -4 -16 -10z"/>
<path d="M7828 2805 c13 -25 52 -62 52 -48 0 5 -14 22 -31 39 -23 21 -29 23
-21 9z"/>
<path d="M8745 2800 c28 -12 47 -12 40 0 -3 6 -18 10 -33 9 -24 0 -25 -1 -7
-9z"/>
<path d="M9095 2800 c-8 -13 15 -13 35 0 12 8 11 10 -7 10 -12 0 -25 -4 -28
-10z"/>
<path d="M8883 2783 c31 -2 83 -2 115 0 31 2 5 3 -58 3 -63 0 -89 -1 -57 -3z"/>
<path d="M9919 2671 c-69 -64 -79 -93 -11 -35 37 31 90 94 79 94 -2 0 -33 -27
-68 -59z"/>
<path d="M7920 2692 c0 -5 9 -17 20 -27 22 -20 26 -9 6 18 -14 18 -26 22 -26
9z"/>
<path d="M8030 2595 c14 -15 34 -32 45 -37 16 -9 16 -6 -5 17 -14 15 -34 32
-45 37 -16 9 -16 6 5 -17z"/>
<path d="M9805 2575 c-16 -14 -25 -25 -19 -25 10 0 54 37 54 45 0 8 -3 6 -35
-20z"/>
<path d="M8116 2527 c2 -7 24 -23 47 -36 23 -12 71 -37 107 -56 36 -19 68 -35
73 -35 14 0 7 21 -10 27 -30 10 -148 66 -153 72 -3 3 -20 14 -37 24 -24 13
-31 14 -27 4z"/>
<path d="M9695 2499 c-27 -16 -70 -38 -95 -49 -25 -12 -53 -25 -62 -30 -10 -6
-24 -10 -32 -10 -8 0 -16 -7 -20 -15 -3 -8 -2 -15 2 -15 11 0 224 108 246 125
35 27 12 23 -39 -6z"/>
<path d="M8368 2393 c7 -3 16 -2 19 1 4 3 -2 6 -13 5 -11 0 -14 -3 -6 -6z"/>
<path d="M8410 2380 c0 -6 7 -10 15 -10 8 0 15 2 15 4 0 2 -7 6 -15 10 -8 3
-15 1 -15 -4z"/>
<path d="M9448 2373 c7 -3 16 -2 19 1 4 3 -2 6 -13 5 -11 0 -14 -3 -6 -6z"/>
<path d="M8465 2360 c-4 -6 3 -10 14 -10 25 0 27 6 6 13 -8 4 -17 2 -20 -3z"/>
<path d="M9388 2353 c6 -2 18 -2 25 0 6 3 1 5 -13 5 -14 0 -19 -2 -12 -5z"/>
<path d="M8523 2333 c9 -2 25 -2 35 0 9 3 1 5 -18 5 -19 0 -27 -2 -17 -5z"/>
<path d="M9313 2333 c9 -2 25 -2 35 0 9 3 1 5 -18 5 -19 0 -27 -2 -17 -5z"/>
<path d="M8585 2320 c-4 -6 11 -10 37 -9 33 0 38 2 23 9 -28 12 -53 12 -60 0z"/>
<path d="M9230 2320 c-11 -7 -5 -10 23 -10 20 0 37 5 37 10 0 13 -40 13 -60 0z"/>
<path d="M8670 2300 c0 -6 27 -10 63 -10 44 0 58 3 47 10 -20 13 -110 13 -110
0z"/>
<path d="M9100 2300 c-11 -7 2 -10 43 -10 31 0 57 4 57 10 0 13 -80 13 -100 0z"/>
<path d="M8850 2280 c18 -12 147 -12 175 0 13 6 -17 9 -85 9 -71 1 -100 -2
-90 -9z"/>
<path d="M5921 1104 c-100 -50 -137 -137 -129 -305 6 -128 37 -187 123 -232
31 -16 59 -21 120 -21 71 -1 86 2 135 30 47 27 60 41 90 98 32 64 34 73 34
169 0 88 -3 110 -26 158 -42 91 -109 129 -228 129 -51 0 -78 -6 -119 -26z
m192 -48 c76 -31 115 -129 104 -254 -8 -76 -38 -137 -87 -170 -30 -20 -44 -23
-102 -20 -61 3 -71 7 -103 38 -43 42 -58 85 -59 175 -1 98 10 140 47 182 53
60 129 79 200 49z"/>
<path d="M6987 1124 c-11 -12 -8 -429 4 -461 12 -34 55 -80 89 -98 77 -40 198
-25 261 32 59 54 69 100 69 329 0 184 -1 193 -20 199 -11 3 -29 4 -39 0 -19
-6 -20 -18 -23 -226 l-3 -221 -37 -34 c-33 -30 -44 -34 -90 -34 -59 0 -108 24
-130 62 -9 16 -14 87 -18 238 l-5 215 -25 3 c-14 2 -29 0 -33 -4z"/>
<path d="M7686 1115 c-46 -16 -101 -66 -127 -116 -47 -92 -44 -260 7 -347 48
-81 147 -122 251 -102 78 14 123 44 123 81 0 36 -6 36 -67 3 -40 -21 -58 -25
-106 -22 -70 5 -104 27 -136 91 -27 54 -33 163 -12 235 34 122 167 166 273 90
32 -22 48 -17 48 16 0 66 -150 108 -254 71z"/>
<path d="M9078 1122 c-17 -3 -18 -23 -18 -235 l0 -232 -81 149 c-45 82 -102
185 -128 230 l-46 81 -53 3 -52 3 0 -286 0 -286 33 3 32 3 5 240 c4 209 7 235
18 210 8 -17 65 -123 129 -238 119 -215 126 -224 184 -215 l24 3 3 281 c2 262
1 282 -15 286 -10 2 -26 2 -35 0z"/>
<path d="M9381 1104 c-100 -50 -137 -137 -129 -305 6 -128 37 -187 123 -232
31 -16 59 -21 120 -21 71 -1 86 2 135 30 47 27 60 41 90 98 32 64 34 73 34
169 0 88 -3 110 -26 158 -42 91 -109 129 -228 129 -51 0 -78 -6 -119 -26z
m192 -48 c76 -31 115 -129 104 -254 -8 -76 -38 -137 -87 -170 -30 -20 -44 -23
-102 -20 -61 3 -71 7 -103 38 -43 42 -58 85 -59 175 -1 98 10 140 47 182 53
60 129 79 200 49z"/>
<path d="M11021 1104 c-100 -50 -137 -137 -129 -305 6 -128 37 -187 123 -232
31 -16 59 -21 120 -21 71 -1 86 2 135 30 47 27 60 41 90 98 32 64 34 73 34
169 0 88 -3 110 -26 158 -42 91 -109 129 -228 129 -51 0 -78 -6 -119 -26z
m192 -48 c76 -31 115 -129 104 -254 -8 -76 -38 -137 -87 -170 -30 -20 -44 -23
-102 -20 -61 3 -71 7 -103 38 -43 42 -58 85 -59 175 -1 98 10 140 47 182 53
60 129 79 200 49z"/>
<path d="M11527 1124 c-11 -12 -8 -429 4 -461 12 -34 55 -80 89 -98 77 -40
198 -25 261 32 59 54 69 100 69 329 0 184 -1 193 -20 199 -11 3 -29 4 -39 0
-19 -6 -20 -18 -23 -226 l-3 -221 -37 -34 c-33 -30 -44 -34 -90 -34 -59 0
-108 24 -130 62 -9 16 -14 87 -18 238 l-5 215 -25 3 c-14 2 -29 0 -33 -4z"/>
<path d="M12478 1122 c-17 -3 -18 -23 -18 -235 l0 -232 -81 149 c-45 82 -102
185 -128 230 l-46 81 -53 3 -52 3 0 -286 0 -286 33 3 32 3 5 240 c4 209 7 235
18 210 8 -17 65 -123 129 -238 119 -215 126 -224 184 -215 l24 3 3 281 c2 262
1 282 -15 286 -10 2 -26 2 -35 0z"/>
<path d="M4860 836 l0 -286 35 0 35 0 0 109 0 108 79 5 c100 6 152 36 183 105
36 82 15 164 -56 217 -24 18 -45 21 -152 24 l-124 4 0 -286z m219 210 c71 -37
66 -162 -9 -201 -16 -8 -54 -15 -85 -15 l-55 0 0 115 0 115 60 0 c34 0 73 -6
89 -14z"/>
<path d="M5330 835 l0 -285 35 0 35 0 0 130 0 130 38 0 c76 0 111 -37 163
-176 l32 -84 38 0 c22 0 39 3 39 8 0 25 -87 218 -110 242 l-28 30 34 21 c44
27 64 66 64 124 0 109 -55 144 -227 145 l-113 0 0 -285z m222 214 c32 -17 51
-74 38 -115 -15 -45 -53 -64 -130 -64 l-60 0 0 95 0 95 66 0 c36 0 74 -5 86
-11z"/>
<path d="M6422 838 l3 -283 120 0 c136 1 185 16 242 75 84 86 94 294 19 393
-18 25 -53 53 -85 70 -51 25 -63 27 -178 27 l-123 0 2 -282z m255 201 c117
-57 140 -288 38 -378 -43 -37 -70 -45 -155 -46 l-65 0 -3 223 -2 222 72 0 c52
0 83 -6 115 -21z"/>
<path d="M7980 1090 l0 -30 85 0 85 0 2 -252 3 -253 38 -3 37 -3 0 255 0 256
84 0 c76 0 85 2 91 20 3 11 3 24 0 30 -4 6 -86 10 -216 10 l-209 0 0 -30z"/>
<path d="M9790 1090 l0 -30 85 0 85 0 2 -252 3 -253 38 -3 37 -3 0 255 0 256
84 0 c76 0 85 2 91 20 3 11 3 24 0 30 -4 6 -86 10 -216 10 l-209 0 0 -30z"/>
<path d="M10510 835 l0 -285 35 0 35 0 0 125 0 125 104 0 c98 0 105 1 111 21
4 12 3 25 -2 30 -4 4 -53 10 -108 11 l-100 3 -3 97 -3 97 113 3 113 3 0 25 0
25 -147 3 -148 3 0 -286z"/>
<path d="M12692 838 l3 -283 120 0 c136 1 185 16 242 75 84 86 94 294 19 393
-18 25 -53 53 -85 70 -51 25 -63 27 -178 27 l-123 0 2 -282z m255 201 c117
-57 140 -288 38 -378 -43 -37 -70 -45 -155 -46 l-65 0 -3 223 -2 222 72 0 c52
0 83 -6 115 -21z"/>
</g>
</svg>
